<svg width="129" height="26" viewBox="0 0 129 26" fill="none" xmlns="http://www.w3.org/2000/svg">
<path fill-rule="evenodd" clip-rule="evenodd" d="M13 26C20.1797 26 26 20.1797 26 13C26 5.8203 20.1797 0 13 0C5.8203 0 0 5.8203 0 13C0 20.1797 5.8203 26 13 26ZM13.0745 21.1491C17.534 21.1491 21.1491 17.534 21.1491 13.0745C21.1491 8.61509 17.534 5 13.0745 5C8.61509 5 5 8.61509 5 13.0745C5 17.534 8.61509 21.1491 13.0745 21.1491Z" fill="white"/>
<path fill-rule="evenodd" clip-rule="evenodd" d="M13.0155 18.0311C15.7855 18.0311 18.0311 15.7855 18.0311 13.0155C18.0311 10.2455 15.7855 8 13.0155 8C10.2455 8 8 10.2455 8 13.0155C8 15.7855 10.2455 18.0311 13.0155 18.0311ZM13.1149 16.2298C14.8352 16.2298 16.2298 14.8352 16.2298 13.1149C16.2298 11.3946 14.8352 10 13.1149 10C11.3946 10 10 11.3946 10 13.1149C10 14.8352 11.3946 16.2298 13.1149 16.2298Z" fill="white"/>
<path d="M45.1348 21C48.1523 21 50.1055 19.3691 50.1055 16.8984C50.1055 15.0332 48.5137 13.5977 46.6094 13.5488V13.4707C48.2402 13.2656 49.4707 12.0449 49.4707 10.4238C49.4707 8.22656 47.7812 6.9082 44.9004 6.9082H37.9766V21H45.1348ZM42.1172 9.75H43.7773C44.8223 9.75 45.4473 10.2773 45.4473 11.1465C45.4473 11.9961 44.7832 12.5527 43.7188 12.5527H42.1172V9.75ZM42.1172 18.1582V14.9258H43.9141C45.1543 14.9258 45.8965 15.5117 45.8965 16.5176C45.8965 17.582 45.1641 18.1582 43.8848 18.1582H42.1172ZM61.4141 17.709H55.6133V15.4434H61.0527V12.4746H55.6133V10.1992H61.4141V6.9082H51.4727V21H61.4141V17.709ZM62.957 16.8496C62.9668 19.6621 65.2227 21.2441 69.002 21.2441C72.752 21.2441 75.1641 19.4082 75.1641 16.5273C75.1641 14.2422 73.8848 12.9434 71.1504 12.4648L69.2168 12.1328C67.8789 11.8984 67.3027 11.5469 67.3027 10.873C67.3027 10.1699 67.9863 9.7207 69.0703 9.7207C70.1836 9.7207 71.0527 10.2383 71.082 11.1172H74.8613C74.8418 8.38281 72.7422 6.66406 68.9922 6.66406C65.6328 6.66406 63.1914 8.46094 63.1914 11.3125C63.1914 13.5195 64.5977 15.0039 67.1855 15.4531L69.0508 15.7852C70.5645 16.0586 71.082 16.3418 71.082 16.9961C71.082 17.6797 70.3203 18.1777 69.0801 18.1777C67.9668 18.1777 66.9902 17.6504 66.873 16.8496H62.957ZM84.041 21V10.1992H87.752V6.9082H76.1895V10.1992H79.9004V21H84.041ZM88.7773 16.8496C88.7871 19.6621 91.043 21.2441 94.8223 21.2441C98.5723 21.2441 100.984 19.4082 100.984 16.5273C100.984 14.2422 99.7051 12.9434 96.9707 12.4648L95.0371 12.1328C93.6992 11.8984 93.123 11.5469 93.123 10.873C93.123 10.1699 93.8066 9.7207 94.8906 9.7207C96.0039 9.7207 96.873 10.2383 96.9023 11.1172H100.682C100.662 8.38281 98.5625 6.66406 94.8125 6.66406C91.4531 6.66406 89.0117 8.46094 89.0117 11.3125C89.0117 13.5195 90.418 15.0039 93.0059 15.4531L94.8711 15.7852C96.3848 16.0586 96.9023 16.3418 96.9023 16.9961C96.9023 17.6797 96.1406 18.1777 94.9004 18.1777C93.7871 18.1777 92.8105 17.6504 92.6934 16.8496H88.7773ZM112.488 17.709H106.688V15.4434H112.127V12.4746H106.688V10.1992H112.488V6.9082H102.547V21H112.488V17.709ZM121.18 6.66406C116.824 6.66406 114.08 9.45703 114.08 13.959C114.08 18.4609 116.814 21.2441 121.18 21.2441C125.535 21.2441 128.279 18.4609 128.279 13.959C128.279 9.45703 125.535 6.66406 121.18 6.66406ZM121.18 9.96484C122.908 9.96484 124.061 11.5176 124.061 13.959C124.061 16.3906 122.918 17.9434 121.18 17.9434C119.441 17.9434 118.299 16.3906 118.299 13.959C118.299 11.5176 119.451 9.96484 121.18 9.96484Z" fill="white"/>
</svg>
